<svg width="58" height="11" viewBox="0 0 58 11" fill="none" xmlns="http://www.w3.org/2000/svg">
<path d="M1.35938 10.4766C1.01562 10.4766 0.693359 10.3477 0.392578 10.0898C0.130859 9.83594 0 9.46484 0 8.97656C0 8.08984 0.291016 7.31445 0.873047 6.65039C1.12695 6.37305 1.41992 6.15625 1.75195 6C2.37305 5.70703 3.36523 5.4707 4.72852 5.29102C5.64648 5.15039 6.33789 5.01953 6.80273 4.89844C7.15039 4.80469 7.43164 4.71289 7.64648 4.62305C7.65039 4.62305 7.66016 4.62109 7.67578 4.61719C7.69141 4.60938 7.70508 4.60352 7.7168 4.59961C7.72852 4.5957 7.73438 4.5918 7.73438 4.58789L7.67578 4.61719C7.67578 4.61328 7.67773 4.61133 7.68164 4.61133C7.68945 4.61133 7.7168 4.59961 7.76367 4.57617C7.77148 4.57617 7.77734 4.57422 7.78125 4.57031C8.21875 4.39062 8.62305 4.16992 8.99414 3.9082C9.01758 3.89648 9.03516 3.88477 9.04688 3.87305L8.98242 3.91992L9.01758 3.89648C9.03711 3.87695 9.08008 3.84375 9.14648 3.79688C9.34961 3.63281 9.54688 3.44336 9.73828 3.22852C9.74219 3.2207 9.74805 3.21289 9.75586 3.20508C9.76367 3.19727 9.77344 3.18555 9.78516 3.16992L9.80273 3.15234L9.74414 3.22266L9.78516 3.16992C9.94141 2.9707 10.0762 2.75781 10.1895 2.53125L10.2246 2.46094L10.1836 2.55469L10.1953 2.51953C10.2773 2.31641 10.3359 2.12305 10.3711 1.93945C10.3711 1.92383 10.373 1.91211 10.377 1.9043L10.3711 1.94531L10.377 1.76953V1.61133L10.3711 1.59961L10.377 1.60547L10.3828 1.6875V1.67578C10.3789 1.66797 10.377 1.64648 10.377 1.61133L10.3652 1.59375L10.3594 1.54102C10.3477 1.49805 10.3398 1.47656 10.3359 1.47656V1.48828L10.3477 1.50586C10.3555 1.5332 10.3613 1.54883 10.3652 1.55273C10.373 1.55664 10.377 1.56055 10.377 1.56445H10.3711C10.3477 1.51758 10.334 1.49414 10.3301 1.49414C10.3301 1.49023 10.3281 1.48438 10.3242 1.47656C10.3203 1.46875 10.3145 1.46094 10.3066 1.45312C10.3027 1.44531 10.3008 1.43945 10.3008 1.43555L10.2949 1.42969L10.3535 1.50586H10.3477L10.2656 1.41797V1.41211L10.2949 1.42969C10.2988 1.4375 10.3027 1.44336 10.3066 1.44727C10.3105 1.44727 10.3184 1.45508 10.3301 1.4707L10.3066 1.45312C10.291 1.44141 10.2773 1.43359 10.2656 1.42969C10.2578 1.42578 10.252 1.42188 10.248 1.41797C10.248 1.41406 10.2461 1.41211 10.2422 1.41211H10.248C10.248 1.41602 10.25 1.41992 10.2539 1.42383C10.2617 1.42773 10.2695 1.43359 10.2773 1.44141C10.2891 1.44531 10.2988 1.44922 10.3066 1.45312C10.3145 1.45703 10.3203 1.45898 10.3242 1.45898L10.2598 1.43555L10.207 1.41797H10.1953C10.1953 1.42188 10.2129 1.42383 10.248 1.42383C10.2598 1.42773 10.2734 1.42969 10.2891 1.42969L10.2363 1.43555H10.166V1.42969L10.2422 1.42383H10.2363C10.2285 1.42773 10.2188 1.43164 10.207 1.43555C10.1992 1.43945 10.1875 1.44336 10.1719 1.44727C10.1602 1.44727 10.1484 1.44922 10.1367 1.45312C10.1289 1.45312 10.123 1.45312 10.1191 1.45312C10.1777 1.45312 10.207 1.44336 10.207 1.42383L10.1777 1.42969C10.1582 1.44141 10.1406 1.45117 10.125 1.45898C10.1094 1.4668 10.1016 1.47461 10.1016 1.48242C10.1211 1.48242 10.1445 1.46289 10.1719 1.42383L10.1133 1.4707C10 1.56445 9.88867 1.66797 9.7793 1.78125L9.65039 1.92773C9.62695 1.95117 9.61523 1.96875 9.61523 1.98047C9.62695 1.98047 9.64258 1.95898 9.66211 1.91602C9.64648 1.94727 9.62305 1.97656 9.5918 2.00391C9.39648 2.25391 9.20703 2.56836 9.02344 2.94727C8.92969 3.14258 8.87891 3.25195 8.87109 3.27539L8.84766 3.32227L8.87695 3.25195C8.86914 3.2793 8.85938 3.30469 8.84766 3.32812C8.83594 3.35156 8.82617 3.37305 8.81836 3.39258C8.45508 4.26367 8.14453 5.15234 7.88672 6.05859C7.66797 6.85547 7.51172 7.53906 7.41797 8.10938L7.41211 8.13281L7.41797 8.10352C7.41797 8.08008 7.41992 8.06641 7.42383 8.0625L7.41797 8.07422V8.10938C7.39844 8.16797 7.38867 8.29492 7.38867 8.49023C7.38867 8.58398 7.39062 8.65039 7.39453 8.68945V8.73047C7.39062 8.72266 7.38867 8.69922 7.38867 8.66016L7.40039 8.74805C7.41602 8.83398 7.43359 8.89453 7.45312 8.92969L7.45898 8.95898C7.45508 8.95508 7.45117 8.94922 7.44727 8.94141C7.44727 8.92969 7.44531 8.91797 7.44141 8.90625C7.4375 8.89453 7.43359 8.88672 7.42969 8.88281C7.44531 8.90625 7.45898 8.93164 7.4707 8.95898C7.48242 8.98242 7.49219 9.00391 7.5 9.02344C7.51172 9.03906 7.51953 9.04883 7.52344 9.05273V9.05859C7.51562 9.05859 7.50586 9.05273 7.49414 9.04102C7.48633 9.02539 7.48242 9.01367 7.48242 9.00586C7.50195 9.0293 7.51172 9.04102 7.51172 9.04102L7.62305 9.15234V9.1582C7.61914 9.1582 7.61133 9.15625 7.59961 9.15234C7.5918 9.14453 7.58398 9.13477 7.57617 9.12305L7.56445 9.11133V9.10547C7.56836 9.10547 7.57422 9.10938 7.58203 9.11719C7.67578 9.17578 7.72656 9.20508 7.73438 9.20508C7.73438 9.20898 7.73242 9.21094 7.72852 9.21094L7.66406 9.18164C7.65625 9.18164 7.65234 9.17969 7.65234 9.17578H7.66406C7.66797 9.17969 7.67383 9.18359 7.68164 9.1875C7.69336 9.1875 7.70117 9.18945 7.70508 9.19336L7.81055 9.22266C7.81445 9.22656 7.82031 9.23047 7.82812 9.23438C7.83984 9.23438 7.84961 9.23633 7.85742 9.24023C7.86914 9.24023 7.87891 9.24219 7.88672 9.24609C7.89844 9.24609 7.90625 9.24609 7.91016 9.24609L7.875 9.24023H7.91602L7.93945 9.24609C8.0293 9.24609 8.08008 9.24414 8.0918 9.24023H8.11523L8.08008 9.24609C8.08398 9.24219 8.08984 9.24023 8.09766 9.24023C8.14062 9.24023 8.21484 9.22266 8.32031 9.1875L8.37891 9.16992C8.34375 9.17383 8.31641 9.18555 8.29688 9.20508L8.32031 9.1875H8.32617C8.39648 9.15234 8.46484 9.11328 8.53125 9.07031L8.50781 9.08789L8.54297 9.05859C8.58594 9.03516 8.66211 8.96484 8.77148 8.84766L8.8125 8.80078L8.78906 8.83594C8.8125 8.80469 8.82422 8.78906 8.82422 8.78906C8.82812 8.78516 8.83008 8.78125 8.83008 8.77734C8.9043 8.68359 8.9668 8.58203 9.01758 8.47266C9.03711 8.42578 9.06055 8.38281 9.08789 8.34375C9.08008 8.35156 9.07422 8.36133 9.07031 8.37305C9.06641 8.38086 9.0625 8.38867 9.05859 8.39648C9.05469 8.4043 9.05273 8.41016 9.05273 8.41406C9.11523 8.29297 9.16797 8.125 9.21094 7.91016C9.25391 7.74609 9.34961 7.62695 9.49805 7.55273C9.59961 7.50195 9.70312 7.47656 9.80859 7.47656C10.0508 7.47656 10.2207 7.58008 10.3184 7.78711C10.3652 7.88867 10.3887 7.99219 10.3887 8.09766C10.3887 8.14453 10.3848 8.19336 10.377 8.24414C10.2871 8.66211 10.1191 9.04492 9.87305 9.39258C9.61523 9.77539 9.2793 10.0664 8.86523 10.2656C8.58398 10.3906 8.29492 10.4531 7.99805 10.4531C7.83789 10.4531 7.67383 10.4336 7.50586 10.3945C7.0332 10.2734 6.67383 10.002 6.42773 9.58008C6.25977 9.24414 6.17578 8.89453 6.17578 8.53125C6.17578 8.42969 6.18164 8.32812 6.19336 8.22656C6.24805 7.75391 6.33203 7.28711 6.44531 6.82617C6.76562 5.41602 7.2168 4.05273 7.79883 2.73633C8.18555 1.82227 8.66211 1.12109 9.22852 0.632812C9.52539 0.359375 9.85547 0.222656 10.2188 0.222656C10.3711 0.222656 10.5234 0.248047 10.6758 0.298828C11.2812 0.548828 11.584 1.03711 11.584 1.76367C11.584 2.4043 11.3711 3.02734 10.9453 3.63281C10.0742 4.85547 8.73047 5.68359 6.91406 6.11719C6.28906 6.26172 5.6582 6.37695 5.02148 6.46289C3.86914 6.61914 3.01758 6.79688 2.4668 6.99609C2.46289 7 2.45508 7.00391 2.44336 7.00781C2.43555 7.01172 2.42773 7.01367 2.41992 7.01367L2.4082 7.01953L2.50781 6.97852L2.47266 6.99609C2.36328 7.03516 2.22461 7.10742 2.05664 7.21289L1.98047 7.25977H1.98633C2.00195 7.24414 2.01172 7.23438 2.01562 7.23047C2.02344 7.22656 2.03711 7.21875 2.05664 7.20703C1.9668 7.26953 1.84375 7.38477 1.6875 7.55273C1.67578 7.56445 1.66211 7.58203 1.64648 7.60547L1.71094 7.5293L1.59375 7.67578C1.49609 7.82812 1.43164 7.94141 1.40039 8.01562C1.38086 8.04297 1.37109 8.0625 1.37109 8.07422H1.36523C1.38086 8.04688 1.38867 8.0332 1.38867 8.0332L1.40625 7.98633V7.99219C1.40234 8 1.39844 8.00781 1.39453 8.01562C1.39453 8.02344 1.39258 8.0293 1.38867 8.0332L1.38281 8.04492C1.32031 8.21289 1.27148 8.38672 1.23633 8.56641L1.21875 8.66602L1.23047 8.61914V8.57227H1.23633L1.23047 8.58984V8.625C1.21484 8.73438 1.20703 8.8457 1.20703 8.95898C1.20703 9.04883 1.21094 9.10156 1.21875 9.11719V9.14062C1.21094 9.125 1.20703 9.09766 1.20703 9.05859L1.25391 9.25781L1.25977 9.27539C1.25977 9.2793 1.25781 9.28125 1.25391 9.28125L1.21289 9.1875C1.22461 9.19531 1.23047 9.20117 1.23047 9.20508C1.23047 9.20898 1.23047 9.21289 1.23047 9.2168C1.23438 9.2207 1.24023 9.22656 1.24805 9.23438C1.25586 9.23828 1.25977 9.24609 1.25977 9.25781L1.26562 9.27539C1.26172 9.27539 1.25586 9.26953 1.24805 9.25781C1.22852 9.23438 1.21484 9.2168 1.20703 9.20508C1.19922 9.19336 1.19531 9.18555 1.19531 9.18164L1.20703 9.1875L1.27734 9.25781H1.27148L1.21875 9.2168V9.21094C1.25781 9.23828 1.2793 9.25391 1.2832 9.25781C1.28711 9.26172 1.29688 9.26562 1.3125 9.26953L1.23047 9.24023C1.24219 9.24414 1.25391 9.24805 1.26562 9.25195C1.27734 9.25195 1.28711 9.25391 1.29492 9.25781C1.30664 9.26172 1.33984 9.27148 1.39453 9.28711H1.38281C1.35547 9.28711 1.33398 9.2832 1.31836 9.27539H1.30078C1.30078 9.27148 1.33203 9.26953 1.39453 9.26953L1.41211 9.26367L1.42383 9.26953L1.35352 9.28125L1.36523 9.27539C1.38867 9.27539 1.40625 9.27344 1.41797 9.26953C1.43359 9.26562 1.45312 9.26172 1.47656 9.25781L1.46484 9.26953C1.45703 9.27734 1.44531 9.2832 1.42969 9.28711C1.41797 9.28711 1.4082 9.28711 1.40039 9.28711C1.40039 9.2793 1.41797 9.26953 1.45312 9.25781C1.46875 9.25391 1.50195 9.23438 1.55273 9.19922L1.59961 9.16992C1.56445 9.20117 1.54492 9.21875 1.54102 9.22266C1.53711 9.22266 1.5332 9.22266 1.5293 9.22266L1.59961 9.16406C1.6582 9.11328 1.70703 9.0625 1.74609 9.01172C1.76562 8.98828 1.78711 8.9668 1.81055 8.94727C1.80664 8.94727 1.80078 8.95312 1.79297 8.96484C1.78516 8.97266 1.77734 8.98047 1.76953 8.98828C1.76562 8.99609 1.76367 9.00195 1.76367 9.00586L1.75781 9.01172L1.76367 9C1.76367 8.99219 1.7793 8.97266 1.81055 8.94141C1.86523 8.86328 1.91602 8.7832 1.96289 8.70117C2.0918 8.47461 2.15625 8.34375 2.15625 8.30859L2.17969 8.26172L2.13281 8.37305C2.14453 8.3457 2.15039 8.33203 2.15039 8.33203C2.15039 8.32812 2.15234 8.32422 2.15625 8.32031L2.21484 8.17383C2.67969 7.05273 3.11523 5.91992 3.52148 4.77539C3.89648 3.74023 4.13281 2.99805 4.23047 2.54883C4.25781 2.43945 4.27148 2.36719 4.27148 2.33203V2.33789C4.26758 2.35352 4.26562 2.375 4.26562 2.40234V2.36133C4.28125 2.3457 4.28906 2.23633 4.28906 2.0332C4.28906 1.9082 4.28516 1.8418 4.27734 1.83398L4.27148 1.83984C4.27148 1.85938 4.27148 1.875 4.27148 1.88672C4.27539 1.89453 4.28125 1.90234 4.28906 1.91016C4.28516 1.90625 4.2832 1.89062 4.2832 1.86328L4.27734 1.8457C4.27734 1.82227 4.26758 1.7793 4.24805 1.7168C4.22852 1.6543 4.21875 1.62109 4.21875 1.61719V1.62305C4.22656 1.63867 4.23047 1.65039 4.23047 1.6582L4.14844 1.49414C4.13281 1.46289 4.11914 1.44727 4.10742 1.44727L4.11914 1.46484C4.12305 1.47656 4.14062 1.49609 4.17188 1.52344C4.13672 1.49219 4.10352 1.45898 4.07227 1.42383L4.00195 1.3418L4.03125 1.35938C4.04688 1.375 4.05664 1.38477 4.06055 1.38867C4.06836 1.39258 4.07227 1.39648 4.07227 1.40039L3.99609 1.34766L3.89062 1.2832C3.88672 1.2832 3.88086 1.2793 3.87305 1.27148L3.82031 1.24805H3.80859L3.89062 1.2832L3.79688 1.24805L3.62109 1.20117H3.59766L3.69727 1.21289L3.57422 1.20703L3.47461 1.21289C3.43945 1.21289 3.42188 1.21094 3.42188 1.20703L3.48633 1.19531H3.50977C3.50586 1.19922 3.49805 1.20312 3.48633 1.20703C3.47461 1.20703 3.46484 1.20898 3.45703 1.21289C3.42578 1.21289 3.375 1.22461 3.30469 1.24805L3.26953 1.26562L3.35742 1.22461C3.26758 1.26367 3.20703 1.29492 3.17578 1.31836C3.08984 1.34961 3.03711 1.38281 3.01758 1.41797L3.08789 1.36523L3.03516 1.40625C2.98047 1.45312 2.92969 1.50391 2.88281 1.55859L2.85352 1.58789L2.90625 1.52344L2.77148 1.74023C2.77539 1.74023 2.77734 1.73828 2.77734 1.73438C2.77734 1.73047 2.7832 1.7168 2.79492 1.69336L2.8125 1.6582C2.80859 1.66211 2.80664 1.66797 2.80664 1.67578C2.78711 1.70312 2.77148 1.74805 2.75977 1.81055C2.74805 1.83398 2.74023 1.85938 2.73633 1.88672V1.92773L2.74219 1.86914C2.74219 1.8457 2.74414 1.83203 2.74805 1.82812V1.85742C2.74414 1.86914 2.74219 1.93359 2.74219 2.05078C2.74609 2.08203 2.74805 2.12891 2.74805 2.19141L2.75391 2.14453C2.75391 2.12891 2.75195 2.11914 2.74805 2.11523C2.74805 2.10742 2.74609 2.10352 2.74219 2.10352V2.14453L2.79492 2.36719C2.80664 2.41797 2.8125 2.46875 2.8125 2.51953C2.8125 2.62891 2.77539 2.74219 2.70117 2.85938C2.63086 2.97266 2.51562 3.05469 2.35547 3.10547C2.30469 3.12109 2.25391 3.12891 2.20312 3.12891C2.09766 3.12891 1.98633 3.0918 1.86914 3.01758C1.64258 2.87305 1.5293 2.54102 1.5293 2.02148C1.5293 1.80664 1.56055 1.59375 1.62305 1.38281C1.77148 0.984375 2.01367 0.660156 2.34961 0.410156C2.68945 0.160156 3.07031 0.0234375 3.49219 0C3.98438 0 4.4082 0.140625 4.76367 0.421875C5.25195 0.808594 5.49609 1.36133 5.49609 2.08008C5.49609 2.27148 5.46875 2.50781 5.41406 2.78906C5.33594 3.21484 5.07812 4.02344 4.64062 5.21484C4.19922 6.48047 3.75391 7.63672 3.30469 8.68359C3.10156 9.20312 2.84375 9.62695 2.53125 9.95508C2.19141 10.3027 1.80078 10.4766 1.35938 10.4766ZM12.2988 10.4648C11.9004 10.4609 11.541 10.3477 11.2207 10.125C10.7988 9.83594 10.5879 9.39453 10.5879 8.80078C10.5879 8.41797 10.7051 7.89453 10.9395 7.23047L10.9922 7.07227C11.2305 6.36523 11.502 5.67188 11.8066 4.99219C11.8418 4.92188 11.8945 4.86328 11.9648 4.81641C12.0859 4.74219 12.207 4.70508 12.3281 4.70508C12.5352 4.70508 12.6973 4.78516 12.8145 4.94531C12.8887 5.05469 12.9258 5.17188 12.9258 5.29688C12.9258 5.41016 12.8984 5.51953 12.8438 5.625C12.8359 5.63281 12.8203 5.66406 12.7969 5.71875L12.7852 5.74219L12.8203 5.67773L12.6797 6.00586C12.3633 6.74414 12.0918 7.53711 11.8652 8.38477C11.834 8.50586 11.8125 8.60547 11.8008 8.68359C11.8008 8.65625 11.8047 8.62695 11.8125 8.5957C11.8125 8.63086 11.8086 8.65625 11.8008 8.67188C11.7969 8.73438 11.7949 8.80664 11.7949 8.88867C11.7988 8.9043 11.8008 8.92969 11.8008 8.96484L11.8066 8.92383C11.8066 8.90039 11.8027 8.88867 11.7949 8.88867H11.7891L11.8301 9.05859L11.8359 9.04102C11.8359 9.03711 11.832 9.02734 11.8242 9.01172C11.8203 8.99609 11.8145 8.98633 11.8066 8.98242C11.8027 8.98242 11.8008 8.98438 11.8008 8.98828L11.8066 9C11.8105 9.01172 11.8145 9.02148 11.8184 9.0293C11.8262 9.03711 11.832 9.04492 11.8359 9.05273C11.8398 9.05664 11.8496 9.07422 11.8652 9.10547C11.8652 9.09766 11.8594 9.08398 11.8477 9.06445L11.8242 9.04688V9.05273C11.8945 9.12305 11.9297 9.16016 11.9297 9.16406C11.9336 9.16797 11.9355 9.17188 11.9355 9.17578L11.9297 9.16992C11.9258 9.16992 11.9199 9.16797 11.9121 9.16406C11.9082 9.15625 11.9043 9.15039 11.9004 9.14648C11.8965 9.14258 11.8867 9.13281 11.8711 9.11719L11.9473 9.1582C11.9902 9.17773 12.0273 9.19922 12.0586 9.22266L11.9766 9.1875C12.0547 9.21875 12.1289 9.23828 12.1992 9.24609L12.2227 9.25781C12.1602 9.25 12.1289 9.24414 12.1289 9.24023C12.1562 9.24023 12.1738 9.24414 12.1816 9.25195H12.3984L12.457 9.24609L12.4102 9.25195C12.4609 9.25195 12.5684 9.22461 12.7324 9.16992L12.8027 9.13477L12.7266 9.17578L12.8789 9.09961C13.0195 9.0293 13.1172 8.97266 13.1719 8.92969C13.1953 8.91797 13.207 8.9082 13.207 8.90039V8.89453C13.1953 8.89453 13.1797 8.91211 13.1602 8.94727C13.1719 8.92383 13.2031 8.89648 13.2539 8.86523L13.3066 8.83008C13.5215 8.64258 13.709 8.45117 13.8691 8.25586L13.9219 8.18555L13.8691 8.25586L13.9219 8.19141C14.1602 7.86328 14.3613 7.55469 14.5254 7.26562C14.6426 7.07812 14.8164 6.98438 15.0469 6.98438C15.1523 6.98438 15.2559 7.01172 15.3574 7.06641C15.5449 7.18359 15.6387 7.35352 15.6387 7.57617C15.6387 7.68945 15.6113 7.79688 15.5566 7.89844C15.2012 8.55859 14.748 9.14453 14.1973 9.65625C13.6035 10.1875 12.9707 10.457 12.2988 10.4648ZM12.9844 3.91406H12.832C12.6758 3.91016 12.5547 3.86523 12.4688 3.7793L12.3984 3.72656C12.2969 3.61328 12.2461 3.50586 12.2461 3.4043C12.2383 3.37695 12.2344 3.33398 12.2344 3.27539C12.2344 3.20117 12.252 3.13086 12.2871 3.06445C12.3145 2.99023 12.3574 2.92578 12.416 2.87109C12.4746 2.8125 12.541 2.77148 12.6152 2.74805C12.6777 2.7168 12.7461 2.70117 12.8203 2.70117H12.9727C13.082 2.70508 13.1855 2.73438 13.2832 2.78906C13.3223 2.82422 13.3633 2.85742 13.4062 2.88867C13.4766 2.9668 13.5254 3.05664 13.5527 3.1582C13.5645 3.2168 13.5703 3.27734 13.5703 3.33984C13.5703 3.41406 13.5527 3.48438 13.5176 3.55078C13.4902 3.625 13.4453 3.68945 13.3828 3.74414C13.3281 3.80273 13.2637 3.84375 13.1895 3.86719C13.127 3.89844 13.0586 3.91406 12.9844 3.91406ZM16.6289 10.4883L16.4707 10.4824C15.9746 10.4395 15.5371 10.248 15.1582 9.9082C14.6934 9.49414 14.4609 8.98438 14.4609 8.37891C14.4609 8.125 14.5059 7.87305 14.5957 7.62305C14.6543 7.46289 14.752 7.34375 14.8887 7.26562C14.9746 7.21875 15.0703 7.19531 15.1758 7.19531C15.4141 7.19531 15.5898 7.29688 15.7031 7.5C15.7578 7.59766 15.7852 7.69727 15.7852 7.79883C15.7852 7.84961 15.7773 7.90234 15.7617 7.95703C15.7344 8.03906 15.7129 8.12109 15.6973 8.20312L15.6914 8.22656L15.6797 8.29102L15.6738 8.34375V8.49023C15.6738 8.50977 15.6758 8.52344 15.6797 8.53125V8.55469L15.668 8.46094L15.6797 8.53125C15.6875 8.57031 15.6973 8.60742 15.709 8.64258C15.7168 8.6582 15.7246 8.68164 15.7324 8.71289L15.7383 8.71875C15.7383 8.72266 15.7363 8.72461 15.7324 8.72461V8.71289C15.7207 8.70117 15.7148 8.68359 15.7148 8.66016L15.7031 8.63672C15.7031 8.66797 15.7168 8.69727 15.7441 8.72461C15.752 8.75195 15.7734 8.78906 15.8086 8.83594L15.8379 8.88281L15.832 8.87109C15.8242 8.86719 15.8125 8.85742 15.7969 8.8418C15.7852 8.82617 15.7793 8.81445 15.7793 8.80664L15.8262 8.85938C15.877 8.92188 15.9316 8.98047 15.9902 9.03516C15.9941 9.03516 15.998 9.03906 16.002 9.04688C16.0098 9.05469 16.0176 9.06445 16.0254 9.07617C16.0371 9.08398 16.0469 9.08789 16.0547 9.08789C16.0078 9.05273 15.9824 9.0332 15.9785 9.0293C15.9785 9.02539 15.9766 9.02344 15.9727 9.02344L16.0898 9.11133L16.2188 9.19336C16.2461 9.20117 16.2734 9.21484 16.3008 9.23438C16.3008 9.23047 16.2949 9.22656 16.2832 9.22266L16.2246 9.19922C16.2363 9.21094 16.2871 9.22461 16.377 9.24023C16.4355 9.25195 16.4883 9.26562 16.5352 9.28125L16.5117 9.27539H16.4473C16.4473 9.27148 16.4492 9.26953 16.4531 9.26953L16.4824 9.27539L16.7754 9.26953L16.6934 9.28125H16.7109L16.7754 9.26367C16.8379 9.25586 16.9004 9.24023 16.9629 9.2168L16.9336 9.22852L16.9805 9.20508C17.0195 9.18555 17.0605 9.16211 17.1035 9.13477L17.1504 9.11133C17.1465 9.11133 17.1406 9.11523 17.1328 9.12305C17.1289 9.12695 17.1211 9.13281 17.1094 9.14062C17.1016 9.14453 17.0938 9.15039 17.0859 9.1582C17.082 9.16211 17.0781 9.16406 17.0742 9.16406L17.1387 9.10547C17.1934 9.06641 17.2266 9.0332 17.2383 9.00586L17.2676 8.97656L17.2148 9.04688L17.3086 8.90625C17.3125 8.89453 17.3164 8.88477 17.3203 8.87695C17.3281 8.86523 17.334 8.85352 17.3379 8.8418C17.3457 8.83008 17.3516 8.82227 17.3555 8.81836C17.3555 8.82617 17.3516 8.83398 17.3438 8.8418C17.3398 8.84961 17.3359 8.85547 17.332 8.85938C17.332 8.86328 17.3262 8.87695 17.3145 8.90039C17.3457 8.8457 17.3652 8.78516 17.373 8.71875C17.377 8.69922 17.3828 8.68164 17.3906 8.66602V8.64844H17.3965L17.3906 8.66016V8.71289L17.3848 8.73633H17.3789C17.3789 8.71289 17.3809 8.69727 17.3848 8.68945V8.58398L17.3789 8.51367L17.3906 8.53711C17.3906 8.56836 17.3926 8.58594 17.3965 8.58984V8.5957C17.3887 8.5957 17.3848 8.58008 17.3848 8.54883C17.3809 8.54102 17.3789 8.53125 17.3789 8.51953L17.332 8.37305L17.3203 8.34961V8.35547C17.3203 8.36328 17.332 8.39062 17.3555 8.4375L17.3379 8.39062C17.2715 8.25781 17.1504 8.06836 16.9746 7.82227C16.6152 7.38477 16.4258 6.92969 16.4062 6.45703C16.4102 6.17188 16.4727 5.90234 16.5938 5.64844C16.832 5.18359 17.1973 4.86523 17.6895 4.69336C17.8848 4.62695 18.084 4.59375 18.2871 4.59375C18.4082 4.59375 18.582 4.61523 18.8086 4.6582C19.0352 4.70117 19.2637 4.83398 19.4941 5.05664C19.7246 5.27539 19.8516 5.56641 19.875 5.92969C19.875 6.10547 19.8145 6.24805 19.6934 6.35742C19.5723 6.46289 19.4297 6.51953 19.2656 6.52734C19.0938 6.52734 18.9531 6.4668 18.8438 6.3457C18.7344 6.22461 18.6758 6.08008 18.668 5.91211V5.88281C18.6719 5.88281 18.6738 5.88672 18.6738 5.89453C18.6738 5.89844 18.6738 5.90625 18.6738 5.91797C18.6777 5.92578 18.6816 5.93359 18.6855 5.94141V5.96484L18.6797 5.9707L18.6738 5.95898C18.6699 5.95117 18.668 5.94531 18.668 5.94141C18.668 5.9375 18.6641 5.92188 18.6562 5.89453C18.6797 5.93359 18.6914 5.95508 18.6914 5.95898C18.6914 5.96289 18.6934 5.9668 18.6973 5.9707H18.6914L18.6387 5.89453V5.88281L18.6914 5.94141V5.95312C18.6875 5.95312 18.6797 5.94727 18.668 5.93555L18.6094 5.87109C18.6133 5.87109 18.6172 5.87305 18.6211 5.87695C18.625 5.88086 18.6328 5.88867 18.6445 5.90039C18.6602 5.91211 18.6719 5.92188 18.6797 5.92969L18.6621 5.91211L18.627 5.89453C18.5957 5.87109 18.5645 5.85156 18.5332 5.83594L18.4922 5.8125H18.5039C18.5273 5.82422 18.543 5.83203 18.5508 5.83594C18.5625 5.83984 18.5703 5.84375 18.5742 5.84766C18.5781 5.84766 18.5801 5.84961 18.5801 5.85352L18.5742 5.84766L18.4688 5.8125C18.4219 5.8125 18.3926 5.80664 18.3809 5.79492C18.416 5.79492 18.4414 5.79883 18.457 5.80664C18.4297 5.80664 18.4102 5.80469 18.3984 5.80078L18.1875 5.80664C18.2422 5.80664 18.2715 5.80469 18.2754 5.80078L18.1992 5.80664C18.1602 5.81055 18.1211 5.82227 18.082 5.8418C18.043 5.86133 18.0117 5.87109 17.9883 5.87109L18.0703 5.83594L18.0176 5.86523C17.9785 5.87695 17.9414 5.89648 17.9062 5.92383C17.8789 5.93164 17.8574 5.94336 17.8418 5.95898C17.8496 5.95898 17.8613 5.95312 17.877 5.94141C17.8965 5.92578 17.9062 5.91602 17.9062 5.91211C17.8984 5.93555 17.8711 5.96094 17.8242 5.98828C17.793 6.01172 17.7715 6.0332 17.7598 6.05273C17.748 6.06836 17.7363 6.08203 17.7246 6.09375C17.7246 6.08594 17.7363 6.07031 17.7598 6.04688L17.7715 6.02344V6.0293C17.7676 6.03711 17.7617 6.04688 17.7539 6.05859C17.7461 6.07031 17.7344 6.08789 17.7188 6.11133C17.707 6.13086 17.6953 6.15234 17.6836 6.17578C17.6719 6.19531 17.6621 6.21289 17.6543 6.22852L17.6426 6.25195L17.6777 6.16406C17.6777 6.17578 17.6758 6.18555 17.6719 6.19336C17.668 6.20117 17.6641 6.20898 17.6602 6.2168L17.6191 6.35742C17.6191 6.37305 17.6172 6.38672 17.6133 6.39844C17.6133 6.41016 17.6113 6.41602 17.6074 6.41602L17.625 6.32227V6.33984C17.6211 6.34766 17.6191 6.38672 17.6191 6.45703V6.5332H17.6133V6.49219L17.6074 6.46875C17.6074 6.46484 17.6094 6.46289 17.6133 6.46289C17.6172 6.49414 17.6191 6.51367 17.6191 6.52148C17.623 6.52539 17.627 6.5332 17.6309 6.54492C17.6387 6.5918 17.6465 6.625 17.6543 6.64453C17.6621 6.66406 17.666 6.67578 17.666 6.67969C17.6621 6.67578 17.6582 6.66992 17.6543 6.66211C17.6543 6.65039 17.6523 6.64062 17.6484 6.63281C17.6445 6.62109 17.6426 6.61133 17.6426 6.60352L17.6367 6.59766L17.6602 6.65625C17.7656 6.85938 17.8906 7.05273 18.0352 7.23633C18.1289 7.36523 18.2188 7.49805 18.3047 7.63477C18.4961 7.94727 18.5918 8.27734 18.5918 8.625C18.5918 8.74219 18.5801 8.86133 18.5566 8.98242C18.4512 9.44727 18.207 9.82031 17.8242 10.1016C17.4609 10.3594 17.0625 10.4883 16.6289 10.4883ZM17.3965 10.5762C16.9629 10.5762 16.5352 10.5273 16.1133 10.4297C15.9492 10.3828 15.8301 10.2871 15.7559 10.1426C15.7051 10.0449 15.6797 9.94141 15.6797 9.83203C15.6797 9.59766 15.7812 9.42773 15.9844 9.32227C16.082 9.27539 16.1816 9.25195 16.2832 9.25195C16.3379 9.25195 16.3926 9.25781 16.4473 9.26953C16.623 9.30469 16.7227 9.32227 16.7461 9.32227C16.7305 9.32227 16.7168 9.32227 16.7051 9.32227C16.6934 9.31836 16.6797 9.31641 16.6641 9.31641C16.6523 9.3125 16.6426 9.31055 16.6348 9.31055C16.627 9.30664 16.625 9.30469 16.6289 9.30469L16.6699 9.31055C16.9199 9.3457 17.1797 9.36328 17.4492 9.36328C17.6367 9.36328 17.8262 9.35547 18.0176 9.33984C18.0215 9.33594 18.0293 9.33398 18.041 9.33398C18.0527 9.33398 18.0625 9.33203 18.0703 9.32812H18.0938H18.082C18.0742 9.33203 18.0605 9.33594 18.041 9.33984C18.0215 9.33984 18.002 9.33984 17.9824 9.33984C17.9785 9.33984 17.9785 9.33984 17.9824 9.33984L18.041 9.33398C18.4355 9.27539 18.7266 9.20312 18.9141 9.11719L18.9785 9.09375L18.9727 9.09961C18.9648 9.10352 18.957 9.10742 18.9492 9.11133C18.9414 9.11133 18.9336 9.11328 18.9258 9.11719C18.918 9.12109 18.9102 9.125 18.9023 9.12891C18.8945 9.12891 18.8906 9.13086 18.8906 9.13477C18.8906 9.13086 18.8984 9.12695 18.9141 9.12305C18.9297 9.11523 18.9434 9.10938 18.9551 9.10547C18.9668 9.09766 18.9805 9.0918 18.9961 9.08789C19.1562 9.01367 19.3301 8.91406 19.5176 8.78906C19.5254 8.78906 19.5391 8.7793 19.5586 8.75977L19.5176 8.78906C19.5371 8.76953 19.5508 8.75977 19.5586 8.75977L19.623 8.70703C19.7559 8.58984 19.8438 8.50586 19.8867 8.45508L19.9277 8.40234C19.9551 8.35938 19.9824 8.32812 20.0098 8.30859L19.9453 8.39062C19.9492 8.39062 19.959 8.37695 19.9746 8.34961C19.9902 8.3418 20.0137 8.31055 20.0449 8.25586C20.166 8.08398 20.2695 7.9043 20.3555 7.7168L20.3672 7.69336L20.4668 7.41211C20.5215 7.25195 20.6172 7.13281 20.7539 7.05469C20.8477 7.00781 20.9453 6.98438 21.0469 6.98438C21.2852 6.98438 21.4609 7.08594 21.5742 7.28906C21.625 7.38281 21.6504 7.47852 21.6504 7.57617C21.6504 7.63086 21.6426 7.6875 21.627 7.74609C21.4082 8.45703 21.0254 9.0625 20.4785 9.5625C19.6777 10.2383 18.6504 10.5762 17.3965 10.5762ZM26.373 10.6523C26.1934 10.6523 26.0176 10.6211 25.8457 10.5586C25.416 10.3906 25.1445 10.0859 25.0312 9.64453C25.0078 9.51953 24.9961 9.39648 24.9961 9.27539C24.9961 8.92773 25.1152 8.40234 25.3535 7.69922C25.4668 7.35938 25.5625 7.01367 25.6406 6.66211L25.6699 6.49805C25.666 6.54102 25.6641 6.56445 25.6641 6.56836C25.6641 6.57227 25.6621 6.57422 25.6582 6.57422C25.6582 6.55078 25.6621 6.51953 25.6699 6.48047L25.6875 6.2168L25.6816 6.14648C25.6855 6.1582 25.6875 6.17188 25.6875 6.1875C25.6875 6.19922 25.6895 6.21289 25.6934 6.22852C25.6777 6.20117 25.6699 6.16406 25.6699 6.11719L25.6641 6.08203C25.668 6.08203 25.6699 6.08398 25.6699 6.08789C25.6738 6.0918 25.6758 6.09766 25.6758 6.10547C25.6797 6.11328 25.6836 6.12305 25.6875 6.13477C25.6914 6.14258 25.6934 6.14844 25.6934 6.15234L25.6875 6.1582L25.6582 6.09961C25.6621 6.09961 25.666 6.10352 25.6699 6.11133C25.6738 6.11523 25.6797 6.12305 25.6875 6.13477C25.6992 6.14648 25.7051 6.1543 25.7051 6.1582C25.709 6.16211 25.7109 6.16602 25.7109 6.16992L25.7051 6.16406C25.7012 6.16406 25.6934 6.1582 25.6816 6.14648C25.6738 6.13477 25.6699 6.12695 25.6699 6.12305H25.6758C25.6875 6.13477 25.7012 6.14453 25.7168 6.15234L25.7402 6.18164C25.7363 6.18164 25.7266 6.17578 25.7109 6.16406L25.6289 6.12305L25.7168 6.16992V6.16406C25.7012 6.14844 25.6758 6.14062 25.6406 6.14062L25.6875 6.15234L25.582 6.14062C25.5664 6.14453 25.5488 6.14648 25.5293 6.14648H25.623C25.623 6.14258 25.6172 6.14062 25.6055 6.14062C25.5898 6.14062 25.5723 6.14258 25.5527 6.14648C25.5371 6.15039 25.5273 6.15234 25.5234 6.15234V6.14648L25.623 6.10547C25.627 6.10547 25.6289 6.10742 25.6289 6.11133C25.6289 6.11523 25.6191 6.12305 25.5996 6.13477C25.584 6.14258 25.5742 6.14844 25.5703 6.15234H25.5645C25.5762 6.14453 25.582 6.14062 25.582 6.14062C25.5859 6.13672 25.5938 6.13086 25.6055 6.12305C25.6211 6.11523 25.6348 6.10547 25.6465 6.09375L25.4355 6.28125C25.2832 6.4375 25.0742 6.67188 24.8086 6.98438L24.7266 7.08984C24.7578 7.05078 24.7773 7.02539 24.7852 7.01367C24.7969 7.00195 24.8027 6.99414 24.8027 6.99023L24.7383 7.07812C24.4688 7.41406 24.209 7.75195 23.959 8.0918C23.3145 8.94727 22.8477 9.52539 22.5586 9.82617C22.1484 10.2559 21.7402 10.4707 21.334 10.4707C20.8809 10.4316 20.5566 10.2051 20.3613 9.79102C20.2832 9.5957 20.2441 9.4043 20.2441 9.2168V9.01758C20.252 8.79883 20.334 8.29883 20.4902 7.51758C20.7754 6.10742 21.1562 4.7832 21.6328 3.54492C21.8828 2.89648 22.1875 2.27734 22.5469 1.6875C22.7305 1.37891 22.9492 1.10742 23.2031 0.873047C23.4609 0.634766 23.7754 0.496094 24.1465 0.457031H24.2109C24.5547 0.457031 24.8535 0.576172 25.1074 0.814453C25.3809 1.07227 25.5215 1.42188 25.5293 1.86328C25.5215 2.21484 25.4609 2.55664 25.3477 2.88867C25.0938 3.72461 24.6953 4.52344 24.1523 5.28516C23.4258 6.28125 22.5449 7.11133 21.5098 7.77539C21.416 7.83008 21.3223 7.85742 21.2285 7.85742C21.002 7.85742 20.8203 7.75195 20.6836 7.54102C20.6328 7.45117 20.6074 7.35938 20.6074 7.26562C20.6074 7.03906 20.7109 6.85742 20.918 6.7207L21.252 6.49805C21.2754 6.47852 21.3008 6.46094 21.3281 6.44531C21.3359 6.4375 21.3418 6.43164 21.3457 6.42773C21.3496 6.41992 21.3574 6.41211 21.3691 6.4043C21.3613 6.4043 21.3398 6.42188 21.3047 6.45703C21.332 6.43359 21.3633 6.41016 21.3984 6.38672C21.418 6.375 21.4355 6.36133 21.4512 6.3457C21.8848 6.00977 22.2852 5.63867 22.6523 5.23242L22.7461 5.10938C22.8008 5.03906 22.8574 4.97461 22.916 4.91602L22.8574 4.97461C22.8652 4.97461 22.9004 4.9375 22.9629 4.86328L23.0742 4.71094C23.4062 4.26562 23.6855 3.79492 23.9121 3.29883L23.9414 3.22266L23.9062 3.31641C23.9141 3.29297 23.9297 3.25781 23.9531 3.21094C24.0273 3.03906 24.0918 2.86523 24.1465 2.68945C24.2051 2.51367 24.252 2.33594 24.2871 2.15625L24.3223 2.02734V2.04492C24.3145 2.06055 24.3105 2.07422 24.3105 2.08594L24.3047 2.10352L24.3105 2.04492C24.3184 1.99805 24.3223 1.92578 24.3223 1.82812L24.3164 1.76953L24.3223 1.83984C24.3262 1.83594 24.3281 1.83008 24.3281 1.82227C24.3281 1.79883 24.3164 1.76367 24.293 1.7168C24.293 1.70117 24.291 1.69141 24.2871 1.6875V1.68164C24.291 1.68164 24.293 1.68359 24.293 1.6875C24.293 1.69141 24.293 1.69922 24.293 1.71094C24.2969 1.71875 24.3008 1.73047 24.3047 1.74609C24.3125 1.75781 24.3164 1.76562 24.3164 1.76953C24.2891 1.71484 24.2754 1.6875 24.2754 1.6875L24.2637 1.65234C24.2676 1.65234 24.2695 1.65625 24.2695 1.66406C24.3008 1.69531 24.3164 1.71289 24.3164 1.7168C24.3203 1.7207 24.3223 1.72461 24.3223 1.72852H24.3164L24.2988 1.71094C24.2598 1.67969 24.2402 1.6582 24.2402 1.64648C24.2676 1.66211 24.2812 1.66992 24.2812 1.66992L24.3164 1.70508C24.2734 1.68555 24.252 1.67578 24.252 1.67578L24.1934 1.63477H24.2109C24.2188 1.63867 24.2285 1.64453 24.2402 1.65234C24.2559 1.65625 24.2676 1.66016 24.2754 1.66406L24.2871 1.67578L24.2402 1.66992C24.2012 1.6582 24.1816 1.65039 24.1816 1.64648H24.2344L24.2812 1.6582C24.2773 1.66211 24.25 1.66406 24.1992 1.66406C24.1523 1.66406 24.1289 1.66602 24.1289 1.66992C24.1289 1.67383 24.1387 1.67578 24.1582 1.67578C24.1738 1.67578 24.1973 1.66992 24.2285 1.6582L24.1113 1.68164V1.67578C24.1191 1.67578 24.1328 1.67188 24.1523 1.66406C24.1719 1.65234 24.1855 1.64648 24.1934 1.64648V1.65234L24.0703 1.7168C24.0703 1.7207 24.0664 1.72461 24.0586 1.72852C24.0547 1.72852 24.0508 1.73047 24.0469 1.73438C24.043 1.73438 24.0312 1.74219 24.0117 1.75781L24.0762 1.71094L23.9414 1.82812C23.8828 1.90625 23.8418 1.95117 23.8184 1.96289L23.877 1.91016H23.8711C23.8516 1.91016 23.8223 1.94531 23.7832 2.01562C23.6152 2.25391 23.4609 2.50195 23.3203 2.75977C23.1797 3.01758 23.0586 3.26367 22.957 3.49805L22.9863 3.42188V3.43359L22.9629 3.49219C22.3145 5.04688 21.832 6.74609 21.5156 8.58984L21.4512 8.98242C21.4512 8.95508 21.4551 8.93359 21.4629 8.91797L21.457 8.97656C21.4492 9.05078 21.4453 9.125 21.4453 9.19922C21.4453 9.22656 21.4473 9.24414 21.4512 9.25195C21.4512 9.26367 21.4492 9.27344 21.4453 9.28125L21.4395 9.20508L21.4453 9.23438C21.4492 9.25781 21.4531 9.27539 21.457 9.28711C21.4609 9.29492 21.4629 9.30078 21.4629 9.30469L21.457 9.31641C21.4453 9.30469 21.4375 9.29297 21.4336 9.28125C21.4336 9.26953 21.4336 9.25586 21.4336 9.24023L21.4512 9.26367C21.459 9.2793 21.4648 9.29297 21.4688 9.30469C21.4766 9.3125 21.4805 9.32031 21.4805 9.32812C21.4453 9.28125 21.4277 9.25586 21.4277 9.25195L21.498 9.32812L21.5039 9.32227C21.5039 9.29883 21.4785 9.28125 21.4277 9.26953C21.4473 9.28516 21.4668 9.29688 21.4863 9.30469C21.4238 9.28125 21.3926 9.26758 21.3926 9.26367L21.4277 9.27539C21.3652 9.25977 21.3242 9.25195 21.3047 9.25195H21.3105C21.3145 9.25586 21.3203 9.25977 21.3281 9.26367C21.3359 9.26367 21.3535 9.26367 21.3809 9.26367C21.3652 9.27148 21.3438 9.27539 21.3164 9.27539L21.2754 9.28125L21.3867 9.24609L21.2695 9.28125H21.3047C21.3984 9.23438 21.457 9.19922 21.4805 9.17578H21.4863L21.4277 9.2168C21.4199 9.2207 21.416 9.22461 21.416 9.22852V9.22266L21.4453 9.20508C21.5195 9.14258 21.5918 9.07812 21.6621 9.01172C21.916 8.75391 22.0879 8.56055 22.1777 8.43164C22.1855 8.41992 22.1914 8.41211 22.1953 8.4082C22.1992 8.4043 22.2109 8.39258 22.2305 8.37305L22.1719 8.4375L22.5586 7.94531L22.8984 7.49414C23.2188 7.05273 23.5918 6.57422 24.0176 6.05859C24.2949 5.71094 24.5527 5.4375 24.791 5.23828C25.0332 5.03516 25.3164 4.93359 25.6406 4.93359C25.9961 4.93359 26.3027 5.06055 26.5605 5.31445C26.7832 5.57617 26.8945 5.87695 26.8945 6.2168L26.8828 6.55664C26.8711 6.82617 26.748 7.32031 26.5137 8.03906C26.3965 8.38672 26.2988 8.74023 26.2207 9.09961L26.2031 9.19922L26.2148 9.11719C26.2188 9.12109 26.2207 9.13086 26.2207 9.14648C26.209 9.20508 26.2031 9.25977 26.2031 9.31055L26.209 9.38672L26.1973 9.30469C26.2012 9.32031 26.2031 9.33789 26.2031 9.35742C26.207 9.37305 26.2168 9.4043 26.2324 9.45117L26.209 9.38086L26.2441 9.44531C26.2363 9.43359 26.2266 9.42188 26.2148 9.41016C26.207 9.39844 26.1992 9.38477 26.1914 9.36914L26.2559 9.43945L26.1855 9.38086C26.2012 9.39258 26.2148 9.40234 26.2266 9.41016C26.2422 9.41797 26.2539 9.42578 26.2617 9.43359C26.2734 9.4375 26.2852 9.44141 26.2969 9.44531L26.209 9.39844C26.209 9.40625 26.2285 9.41602 26.2676 9.42773L26.3672 9.45117L26.2734 9.44531V9.43945C26.3789 9.43945 26.4336 9.4375 26.4375 9.43359C26.4375 9.42969 26.4316 9.42773 26.4199 9.42773C26.4043 9.42773 26.3789 9.43359 26.3438 9.44531C26.3633 9.44141 26.3867 9.43945 26.4141 9.43945C26.4414 9.43555 26.5449 9.40234 26.7246 9.33984L26.6543 9.36914C26.6699 9.35742 26.6797 9.35156 26.6836 9.35156C26.6875 9.35156 26.7012 9.3457 26.7246 9.33398C26.7793 9.31055 26.8535 9.27148 26.9473 9.2168C26.9746 9.18945 26.998 9.17578 27.0176 9.17578L26.959 9.22266V9.2168L26.9824 9.19336C27.1621 9.03711 27.334 8.87109 27.498 8.69531L27.709 8.44922C27.6699 8.48047 27.6504 8.5 27.6504 8.50781C27.6582 8.50781 27.6719 8.49414 27.6914 8.4668C27.8633 8.24414 28.0137 8.01367 28.1426 7.77539C28.1465 7.76367 28.1523 7.74609 28.1602 7.72266C28.1719 7.69922 28.1836 7.67383 28.1953 7.64648C28.207 7.61523 28.2188 7.59766 28.2305 7.59375L28.1953 7.67578C28.2031 7.66016 28.207 7.64844 28.207 7.64062C28.2109 7.62891 28.2148 7.62109 28.2188 7.61719C28.2227 7.60938 28.2246 7.60156 28.2246 7.59375L28.2715 7.48242C28.3887 7.19727 28.5859 7.05469 28.8633 7.05469C29.0938 7.05469 29.2656 7.15625 29.3789 7.35938C29.4336 7.45312 29.4609 7.54883 29.4609 7.64648C29.4609 7.70117 29.4512 7.75781 29.4316 7.81641C29.1191 8.67969 28.5801 9.43164 27.8145 10.0723C27.5488 10.291 27.2383 10.457 26.8828 10.5703C26.7109 10.625 26.541 10.6523 26.373 10.6523ZM33.6562 10.5645C33.3516 10.5645 33.0723 10.4922 32.8184 10.3477C32.5684 10.2031 32.373 9.98438 32.2324 9.69141C32.0957 9.39844 32.0195 9.08203 32.0039 8.74219C32.0039 8.04297 32.1523 7.14258 32.4492 6.04102L32.4609 5.98828L33.5742 6.43359C33.0703 7.56641 32.4062 8.59766 31.582 9.52734C31.0508 10.1289 30.4922 10.4395 29.9062 10.459C29.6016 10.459 29.3223 10.3887 29.0684 10.248C28.8184 10.1035 28.6152 9.88867 28.459 9.60352C28.2871 9.27539 28.1914 8.91211 28.1719 8.51367C28.1719 7.70117 28.3867 6.91602 28.8164 6.1582C28.957 5.89648 29.1309 5.66016 29.3379 5.44922C29.752 5.02734 30.2461 4.80469 30.8203 4.78125C31.0977 4.78125 31.3457 4.81445 31.5645 4.88086C32.041 5.04492 32.4238 5.33203 32.7129 5.74219C32.9277 6.05469 33.043 6.41797 33.0586 6.83203C33.0586 7.04688 33.0488 7.22266 33.0293 7.35938C32.9941 7.52734 32.9023 7.65234 32.7539 7.73438C32.6602 7.78516 32.5605 7.8125 32.4551 7.81641C32.2051 7.81641 32.0293 7.7207 31.9277 7.5293C31.873 7.42383 31.8457 7.30664 31.8457 7.17773C31.8457 7.13867 31.8516 7.07812 31.8633 6.99609L31.8574 7.03711L31.8633 6.91992C31.8633 6.8457 31.8574 6.7793 31.8457 6.7207L31.8633 6.80273L31.7871 6.53906C31.7832 6.53516 31.7793 6.5293 31.7754 6.52148C31.7715 6.50977 31.7695 6.5 31.7695 6.49219L31.7988 6.57422C31.7832 6.53906 31.7734 6.52148 31.7695 6.52148C31.7695 6.51758 31.7598 6.49805 31.7402 6.46289C31.7012 6.40039 31.6699 6.35352 31.6465 6.32227C31.6621 6.33789 31.6738 6.35352 31.6816 6.36914C31.6934 6.38086 31.7012 6.38867 31.7051 6.39258C31.709 6.39258 31.7109 6.39453 31.7109 6.39844C31.7109 6.39453 31.709 6.39258 31.7051 6.39258C31.7051 6.39258 31.6973 6.38867 31.6816 6.38086C31.6699 6.36914 31.6582 6.35352 31.6465 6.33398L31.4414 6.14648C31.4531 6.15039 31.4668 6.1582 31.4824 6.16992C31.498 6.18164 31.5117 6.19141 31.5234 6.19922L31.4531 6.16406C31.3906 6.11719 31.3125 6.07031 31.2188 6.02344H31.2129C31.2129 6.03516 31.2227 6.04297 31.2422 6.04688C31.2617 6.04688 31.2715 6.04883 31.2715 6.05273C31.2441 6.04102 31.1836 6.02539 31.0898 6.00586C31.0781 6.00195 31.0625 6 31.043 6C31.0273 6 31.0098 5.99609 30.9902 5.98828C31.0293 6 31.0566 6.00586 31.0723 6.00586C31.084 6.00586 31.0898 6.00391 31.0898 6C31.0859 5.99609 31.0645 5.99414 31.0254 5.99414L30.7559 6V5.99414H30.7969C30.7539 5.99805 30.6562 6.02344 30.5039 6.07031H30.5156C30.4531 6.08594 30.3848 6.125 30.3105 6.1875C30.3027 6.19531 30.293 6.19922 30.2812 6.19922H30.2871C30.2871 6.19141 30.2949 6.18359 30.3105 6.17578C30.3262 6.16406 30.3398 6.1543 30.3516 6.14648L30.3223 6.17578C30.2754 6.19922 30.1934 6.28516 30.0762 6.43359C30.0723 6.43359 30.0703 6.43555 30.0703 6.43945C30.0547 6.47461 30.0391 6.49219 30.0234 6.49219C30.0508 6.48828 30.0684 6.4668 30.0762 6.42773C29.8965 6.68555 29.7578 6.9375 29.6602 7.18359C29.6523 7.21875 29.6406 7.25195 29.625 7.2832L29.6602 7.20703C29.6602 7.20312 29.6582 7.20117 29.6543 7.20117C29.6074 7.29883 29.5488 7.47656 29.4785 7.73438C29.4199 7.94922 29.3906 8.08594 29.3906 8.14453C29.3906 8.16406 29.3867 8.18164 29.3789 8.19727C29.3789 8.17383 29.3809 8.1582 29.3848 8.15039C29.3809 8.18555 29.3789 8.27539 29.3789 8.41992C29.3789 8.51758 29.3789 8.57422 29.3789 8.58984C29.3828 8.60547 29.4082 8.70898 29.4551 8.90039C29.4707 8.91992 29.4824 8.94141 29.4902 8.96484L29.4844 8.95898C29.4805 8.93945 29.4688 8.91992 29.4492 8.90039V8.89453L29.5723 9.09961C29.584 9.11133 29.5918 9.12305 29.5957 9.13477C29.5918 9.13086 29.5859 9.12695 29.5781 9.12305C29.5742 9.11914 29.5605 9.10156 29.5371 9.07031L29.6719 9.21094C29.6641 9.21094 29.6543 9.20703 29.6426 9.19922C29.6309 9.19141 29.6211 9.17969 29.6133 9.16406C29.6172 9.16406 29.625 9.16797 29.6367 9.17578C29.6484 9.18359 29.6582 9.19141 29.666 9.19922C29.6777 9.20312 29.6875 9.20703 29.6953 9.21094C29.707 9.21484 29.7188 9.2207 29.7305 9.22852C29.7461 9.23242 29.7598 9.24023 29.7715 9.25195C29.7676 9.24805 29.7578 9.24414 29.7422 9.24023C29.7305 9.23242 29.7207 9.22852 29.7129 9.22852C29.7051 9.22461 29.7012 9.2207 29.7012 9.2168C29.7051 9.22461 29.7266 9.23047 29.7656 9.23438C29.8047 9.23828 29.8379 9.24414 29.8652 9.25195H29.8008L29.9766 9.24023L29.8945 9.25781C29.8945 9.25391 29.9004 9.25195 29.9121 9.25195C29.9277 9.25195 29.9453 9.24805 29.9648 9.24023C30.0508 9.2207 30.0996 9.20508 30.1113 9.19336C30.123 9.18164 30.1328 9.17383 30.1406 9.16992L30.0703 9.21094C30.2266 9.13281 30.3262 9.07227 30.3691 9.0293L30.3984 9.00586V9.01172C30.3906 9.01172 30.3809 9.01758 30.3691 9.0293C30.3613 9.04102 30.3535 9.04688 30.3457 9.04688C30.3613 9.04688 30.4004 9.01367 30.4629 8.94727C30.6699 8.75195 30.9316 8.44531 31.248 8.02734L31.3008 7.96289L31.2539 8.0332L31.2656 8.00391C31.3086 7.95703 31.3789 7.85938 31.4766 7.71094C31.8711 7.13672 32.2188 6.51367 32.5195 5.8418C32.6133 5.65039 32.7812 5.54883 33.0234 5.53711C33.2812 5.53711 33.4668 5.64453 33.5801 5.85938C33.623 5.9375 33.6465 6.01953 33.6504 6.10547C33.6504 6.17188 33.6426 6.24414 33.627 6.32227C33.459 6.92773 33.3281 7.53906 33.2344 8.15625L33.2227 8.29102V8.20898C33.2148 8.32227 33.2109 8.41016 33.2109 8.47266C33.2109 8.75781 33.2188 8.9082 33.2344 8.92383C33.2305 8.91602 33.2266 8.89258 33.2227 8.85352C33.2305 8.86523 33.2344 8.87891 33.2344 8.89453C33.2344 8.9375 33.2539 9.01172 33.293 9.11719C33.2969 9.14453 33.3047 9.16406 33.3164 9.17578H33.3105L33.3047 9.1582C33.2891 9.13477 33.2812 9.12109 33.2812 9.11719C33.2812 9.10938 33.2793 9.10352 33.2754 9.09961C33.2793 9.09961 33.2832 9.10352 33.2871 9.11133C33.3535 9.22461 33.3945 9.28516 33.4102 9.29297C33.4141 9.29297 33.416 9.29102 33.416 9.28711C33.4121 9.27539 33.3887 9.25586 33.3457 9.22852C33.3574 9.23633 33.3965 9.27344 33.4629 9.33984C33.4551 9.33203 33.4434 9.32422 33.4277 9.31641C33.416 9.30859 33.4043 9.29883 33.3926 9.28711V9.28125L33.5156 9.35156C33.5117 9.35156 33.498 9.34766 33.4746 9.33984C33.4551 9.33203 33.4414 9.32422 33.4336 9.31641H33.4395C33.4551 9.33203 33.4785 9.33984 33.5098 9.33984C33.5176 9.34375 33.5293 9.34766 33.5449 9.35156C33.5645 9.35547 33.582 9.35742 33.5977 9.35742C33.6094 9.35742 33.6152 9.35547 33.6152 9.35156L33.5859 9.3457L33.5039 9.35156L33.5215 9.3457C33.5449 9.3457 33.5684 9.34961 33.5918 9.35742C33.6582 9.35352 33.6992 9.34961 33.7148 9.3457L33.627 9.36328C33.6309 9.36328 33.6406 9.35938 33.6562 9.35156C33.6719 9.34375 33.6934 9.33789 33.7207 9.33398C33.748 9.33008 33.7773 9.32227 33.8086 9.31055C33.8125 9.30664 33.8164 9.30469 33.8203 9.30469C33.8281 9.30078 33.8359 9.29883 33.8438 9.29883C33.8516 9.29492 33.8574 9.29102 33.8613 9.28711L33.8086 9.31055C33.8828 9.27148 33.9414 9.23633 33.9844 9.20508L34.0371 9.17578C34.0332 9.17578 34.0293 9.17773 34.0254 9.18164C34.0215 9.18555 34.0156 9.19141 34.0078 9.19922C34 9.20703 33.9941 9.21289 33.9902 9.2168C33.9863 9.2168 33.9824 9.2168 33.9785 9.2168L34.002 9.19336C34.1113 9.08789 34.1992 8.98828 34.2656 8.89453L34.2188 8.95312C34.2461 8.91016 34.2734 8.875 34.3008 8.84766C34.4492 8.62891 34.6055 8.33398 34.7695 7.96289C34.7773 7.93945 34.7871 7.91797 34.7988 7.89844L34.7637 7.98633C34.8496 7.72852 34.9062 7.5332 34.9336 7.40039C34.9766 7.23633 35.0684 7.11328 35.209 7.03125C35.3027 6.97656 35.4023 6.94727 35.5078 6.94336C35.7461 6.94336 35.9219 7.03906 36.0352 7.23047C36.0859 7.32422 36.1152 7.42188 36.123 7.52344C36.123 7.57812 36.1191 7.63281 36.1113 7.6875C35.959 8.36328 35.6816 8.98242 35.2793 9.54492C35.0957 9.81836 34.8711 10.0527 34.6055 10.248C34.3125 10.4434 33.9961 10.5488 33.6562 10.5645ZM42.9492 10.4883C42.8711 10.4883 42.7539 10.4805 42.5977 10.4648C42.4453 10.4453 42.2793 10.3594 42.0996 10.207C41.9043 10.0195 41.793 9.79492 41.7656 9.5332C41.7539 9.43555 41.748 9.33984 41.748 9.24609C41.748 9.08203 41.7637 8.92188 41.7949 8.76562C41.8809 8.30469 42.0098 7.85547 42.1816 7.41797L42.2402 7.24219C42.3926 6.83984 42.4941 6.53711 42.5449 6.33398C42.5488 6.31836 42.5508 6.30078 42.5508 6.28125C42.5547 6.25781 42.5605 6.23438 42.5684 6.21094L42.5625 6.24609V6.20508C42.5664 6.20508 42.5684 6.19922 42.5684 6.1875C42.5684 6.17188 42.5703 6.15039 42.5742 6.12305C42.5742 6.04883 42.5723 6.00977 42.5684 6.00586L42.5742 6.08203L42.5625 6.01172C42.5586 5.99219 42.5527 5.97461 42.5449 5.95898C42.541 5.93945 42.5391 5.92773 42.5391 5.92383C42.5391 5.91602 42.5371 5.90234 42.5332 5.88281C42.5371 5.88672 42.541 5.89453 42.5449 5.90625C42.5488 5.91406 42.5527 5.92188 42.5566 5.92969C42.5605 5.9375 42.5625 5.94531 42.5625 5.95312C42.5586 5.95312 42.5469 5.93555 42.5273 5.90039L42.4746 5.8125L42.5273 5.88281C42.4805 5.83594 42.4531 5.81055 42.4453 5.80664C42.4414 5.80273 42.4375 5.79492 42.4336 5.7832C42.4492 5.81445 42.4648 5.83398 42.4805 5.8418L42.498 5.84766C42.498 5.83984 42.4707 5.82031 42.416 5.78906L42.5039 5.83008L42.334 5.77734L42.3457 5.77148L42.3633 5.77734H42.3926L42.4395 5.78906L42.3281 5.7832C42.2578 5.7832 42.2188 5.78516 42.2109 5.78906H42.2285C42.252 5.78906 42.2715 5.78516 42.2871 5.77734H42.3105L42.2578 5.78906C42.1992 5.80078 42.1406 5.81641 42.082 5.83594L42.0293 5.85352C42.0293 5.84961 42.0332 5.84766 42.041 5.84766C42.0488 5.84375 42.0605 5.83789 42.0762 5.83008C42.0957 5.82227 42.1094 5.81836 42.1172 5.81836L42.0645 5.8418C41.9434 5.9043 41.8457 5.96289 41.7715 6.01758C41.7637 6.02148 41.7578 6.02539 41.7539 6.0293C41.75 6.0293 41.7383 6.03906 41.7188 6.05859C41.7227 6.05859 41.748 6.03906 41.7949 6L41.7422 6.03516C41.5547 6.19141 41.377 6.36523 41.209 6.55664L41.1504 6.63281L41.2207 6.55078C41.2051 6.56641 41.1953 6.57617 41.1914 6.58008C41.1914 6.58398 41.1875 6.58984 41.1797 6.59766C41.1719 6.60547 41.166 6.61328 41.1621 6.62109C40.9238 6.92578 40.6992 7.31641 40.4883 7.79297L40.4707 7.82812L40.4766 7.81641C40.4766 7.8125 40.4766 7.80859 40.4766 7.80469C40.4805 7.79688 40.4883 7.7832 40.5 7.76367L40.3535 8.11523C40.0684 8.7832 39.877 9.21094 39.7793 9.39844L39.709 9.54492C39.7168 9.51758 39.7266 9.49219 39.7383 9.46875C39.7305 9.51172 39.7168 9.55469 39.6973 9.59766L39.6387 9.73828L39.5801 9.90234C39.4629 10.1875 39.2656 10.3301 38.9883 10.3301C38.7578 10.3301 38.5859 10.2285 38.4727 10.0254C38.418 9.93164 38.3906 9.83594 38.3906 9.73828C38.3906 9.625 38.4824 9.36523 38.666 8.95898C38.6895 8.91211 38.7109 8.86328 38.7305 8.8125C38.7734 8.72656 38.8105 8.64258 38.8418 8.56055L38.8652 8.51367C38.8613 8.52148 38.8574 8.5293 38.8535 8.53711C38.8535 8.54492 38.8516 8.55273 38.8477 8.56055C38.8438 8.56445 38.8418 8.57031 38.8418 8.57812H38.8359L38.8477 8.56055C39.1523 7.8457 39.3672 7.21094 39.4922 6.65625C39.5156 6.5625 39.5273 6.5 39.5273 6.46875C39.5312 6.46484 39.5332 6.45898 39.5332 6.45117V6.42188H39.5391L39.5332 6.43359L39.5273 6.49805L39.5332 6.47461L39.5449 6.19336V6.08789L39.5391 6.08203V6.11133C39.5391 6.13086 39.543 6.14258 39.5508 6.14648C39.5469 6.14648 39.5449 6.13477 39.5449 6.11133C39.5371 6.0957 39.5312 6.08008 39.5273 6.06445C39.5273 6.04492 39.5234 6.02734 39.5156 6.01172C39.5156 5.97266 39.5078 5.95312 39.4922 5.95312V5.9707L39.5273 6.0293L39.457 5.90039L39.4395 5.87695C39.4551 5.9082 39.4668 5.92773 39.4746 5.93555L39.4863 5.94727C39.4863 5.93164 39.459 5.89648 39.4043 5.8418L39.3516 5.78906L39.416 5.8418C39.4004 5.83789 39.3809 5.82812 39.3574 5.8125C39.3379 5.79297 39.3164 5.7793 39.293 5.77148C39.2734 5.75977 39.2539 5.74805 39.2344 5.73633L39.2637 5.74219C39.2871 5.75781 39.3047 5.76562 39.3164 5.76562H39.2988L39.1406 5.72461H39.1641C39.1719 5.72852 39.1953 5.73047 39.2344 5.73047L39.0703 5.72461L39.0234 5.73047H38.9414C38.9609 5.73047 38.9766 5.72852 38.9883 5.72461H39.0117L39.0234 5.71875H39.0176C39.0137 5.72266 39.002 5.72852 38.9824 5.73633C38.9629 5.74023 38.9395 5.74414 38.9121 5.74805C38.8848 5.75195 38.8555 5.75977 38.8242 5.77148C38.7773 5.7832 38.752 5.79102 38.748 5.79492V5.80078C38.752 5.80078 38.7598 5.80078 38.7715 5.80078C38.7871 5.79688 38.8008 5.78516 38.8125 5.76562C38.8125 5.77734 38.8008 5.7832 38.7773 5.7832C38.7695 5.78711 38.7617 5.79102 38.7539 5.79492C38.75 5.79492 38.748 5.79688 38.748 5.80078C38.6699 5.83594 38.5938 5.87695 38.5195 5.92383L38.4961 5.94141L38.5312 5.91797L38.4844 5.95312C38.3789 6.03125 38.25 6.15625 38.0977 6.32812L38.0625 6.375L38.0215 6.41602C38.0254 6.41602 38.0312 6.41016 38.0391 6.39844C38.0508 6.38281 38.0586 6.37305 38.0625 6.36914L37.9219 6.55078C37.8125 6.70703 37.709 6.86719 37.6113 7.03125L37.2363 7.63477C36.791 8.36914 36.3359 9.0957 35.8711 9.81445L35.8359 9.86719C35.7227 10.0742 35.5684 10.2422 35.373 10.3711C35.2285 10.4492 35.0781 10.4883 34.9219 10.4883C34.8359 10.4883 34.75 10.4766 34.6641 10.4531C34.3164 10.3242 34.1348 10.0742 34.1191 9.70312C34.1348 9.52734 34.1797 9.35742 34.2539 9.19336C34.2734 9.1543 34.5254 8.47461 35.0098 7.1543C35.2637 6.45508 35.5215 5.75586 35.7832 5.05664C35.9004 4.77148 36.0977 4.62891 36.375 4.62891C36.6094 4.62891 36.7832 4.73047 36.8965 4.93359C36.9473 5.02734 36.9727 5.12305 36.9727 5.2207C36.9727 5.27539 36.9648 5.33203 36.9492 5.39062C36.9453 5.39453 36.9414 5.39844 36.9375 5.40234C36.9375 5.40625 36.9375 5.41211 36.9375 5.41992C36.7891 5.8418 36.6348 6.26172 36.4746 6.67969L36.2402 7.30664C35.6895 8.78711 35.4004 9.57031 35.373 9.65625C35.3574 9.70703 35.3379 9.75781 35.3145 9.80859L35.3086 9.83203C35.3242 9.79688 35.332 9.76367 35.332 9.73242C35.332 9.66602 35.3262 9.62695 35.3145 9.61523C35.2988 9.5332 35.2598 9.46289 35.1973 9.4043C35.1348 9.3457 35.0723 9.30859 35.0098 9.29297C34.9863 9.29297 34.9688 9.29102 34.957 9.28711C34.9297 9.28711 34.9141 9.28516 34.9102 9.28125C34.9141 9.27734 34.9238 9.27539 34.9395 9.27539L34.8223 9.28711C34.8496 9.28711 34.8672 9.2832 34.875 9.27539V9.26953L34.7637 9.32227C34.7676 9.31836 34.7734 9.31641 34.7812 9.31641C34.7891 9.3125 34.7969 9.30664 34.8047 9.29883L34.7461 9.3457C34.7266 9.37305 34.7168 9.38672 34.7168 9.38672L34.6758 9.42773L34.6934 9.4043L34.7227 9.35156L34.8105 9.22266L34.998 8.93555C35.4863 8.16992 35.8594 7.57617 36.1172 7.1543C36.2031 7.02148 36.2852 6.88672 36.3633 6.75C36.5234 6.47656 36.6914 6.20898 36.8672 5.94727C37.3789 5.19336 37.9746 4.73242 38.6543 4.56445C38.7988 4.5332 38.9434 4.51758 39.0879 4.51758C39.1855 4.51758 39.3203 4.53125 39.4922 4.55859C39.668 4.58594 39.8574 4.67383 40.0605 4.82227C40.5137 5.17383 40.7461 5.63672 40.7578 6.21094C40.7578 6.57422 40.668 7.04492 40.4883 7.62305C40.332 8.12305 40.0801 8.75586 39.7324 9.52148L39.6973 9.5918C39.7012 9.58789 39.7031 9.58203 39.7031 9.57422C39.707 9.5625 39.7188 9.53711 39.7383 9.49805L39.5801 9.90234L38.4199 9.56836C38.5684 9.16602 38.6914 8.86914 38.7891 8.67773L38.9004 8.45508C38.9199 8.4082 38.9414 8.36328 38.9648 8.32031L38.959 8.33203C38.9902 8.26953 39.0176 8.20508 39.041 8.13867L39.0762 8.05664C39.0996 7.99414 39.125 7.93359 39.1523 7.875C39.3789 7.30469 39.5938 6.83789 39.7969 6.47461C39.9453 6.23242 40.1113 6.00195 40.2949 5.7832C40.6621 5.31445 41.0566 4.98242 41.4785 4.78711C41.7559 4.65039 42.043 4.58203 42.3398 4.58203C42.3789 4.58203 42.4922 4.58789 42.6797 4.59961C42.8711 4.61133 43.0957 4.74414 43.3535 4.99805C43.6191 5.28711 43.7578 5.61719 43.7695 5.98828C43.7695 6.375 43.709 6.73438 43.5879 7.06641L43.4473 7.45898C43.2793 7.90039 43.1367 8.34961 43.0195 8.80664C42.9766 8.9707 42.9551 9.07227 42.9551 9.11133L42.9609 9.08789C42.9609 9.06055 42.9629 9.04297 42.9668 9.03516V9.06445C42.959 9.10742 42.9551 9.20703 42.9551 9.36328L42.9609 9.4043V9.32227C42.957 9.30273 42.9551 9.29102 42.9551 9.28711C42.9551 9.2793 42.9531 9.27539 42.9492 9.27539L42.9668 9.38086L42.9844 9.43359C42.9727 9.39453 42.9629 9.36523 42.9551 9.3457C42.9512 9.32617 42.9473 9.31641 42.9434 9.31641C42.9434 9.33203 42.9473 9.34766 42.9551 9.36328L42.9844 9.39258C42.9844 9.37695 42.959 9.34766 42.9082 9.30469C42.9316 9.32031 42.9434 9.33398 42.9434 9.3457C42.9512 9.35352 42.9551 9.35938 42.9551 9.36328L42.8672 9.28711C42.8711 9.28711 42.8789 9.29102 42.8906 9.29883C42.9023 9.30664 42.9082 9.3125 42.9082 9.31641L42.8203 9.28125V9.27539C42.8242 9.27539 42.834 9.27734 42.8496 9.28125C42.8691 9.28516 42.8867 9.28711 42.9023 9.28711C42.9023 9.2793 42.8633 9.27539 42.7852 9.27539H42.8262L42.8613 9.28125L43.125 9.26953C43.1094 9.27734 43.0781 9.28125 43.0312 9.28125H43.0254C43.041 9.28125 43.0566 9.27734 43.0723 9.26953C43.1309 9.26172 43.1699 9.25391 43.1895 9.24609C43.209 9.23438 43.2266 9.22656 43.2422 9.22266L43.1309 9.25781L43.1895 9.23438C43.2285 9.22266 43.2793 9.19727 43.3418 9.1582L43.4297 9.09961C43.4258 9.10742 43.418 9.11523 43.4062 9.12305C43.3984 9.12695 43.3906 9.13281 43.3828 9.14062C43.375 9.14453 43.3672 9.14844 43.3594 9.15234C43.3594 9.14844 43.3652 9.14258 43.377 9.13477C43.5645 8.98242 43.6973 8.85742 43.7754 8.75977L43.8691 8.66602C43.8574 8.68164 43.8496 8.69336 43.8457 8.70117C43.8418 8.70508 43.8301 8.7168 43.8105 8.73633L43.8398 8.68945C43.8945 8.63477 43.9727 8.50977 44.0742 8.31445C44.1172 8.24023 44.1562 8.16602 44.1914 8.0918C44.2031 8.05664 44.2109 8.03711 44.2148 8.0332L44.2266 8.02148H44.2207C44.2207 8.02539 44.2188 8.03125 44.2148 8.03906C44.2109 8.04688 44.207 8.05469 44.2031 8.0625C44.1992 8.07031 44.1953 8.07812 44.1914 8.08594V8.09766L44.2031 8.06836C44.3008 7.83008 44.3809 7.58594 44.4434 7.33594C44.4902 7.16797 44.5859 7.04883 44.7305 6.97852C44.832 6.92773 44.9355 6.90234 45.041 6.90234C45.2754 6.90234 45.4453 7.00391 45.5508 7.20703C45.5977 7.30859 45.6211 7.41406 45.6211 7.52344C45.6211 7.57031 45.6172 7.61914 45.6094 7.66992C45.5273 7.99805 45.4141 8.31445 45.2695 8.61914C45.043 9.16211 44.6875 9.63281 44.2031 10.0312C43.8359 10.3359 43.418 10.4883 42.9492 10.4883ZM51.3223 10.5469H51.2812C50.1992 10.5469 49.3066 10.1797 48.6035 9.44531C48.1855 9.01172 47.8945 8.50195 47.7305 7.91602C47.6562 7.61523 47.6191 7.31641 47.6191 7.01953C47.6191 6.66016 47.6953 6.22852 47.8477 5.72461C48.0039 5.2168 48.2715 4.6875 48.6504 4.13672C49.3613 3.09766 50.2637 2.26367 51.3574 1.63477C51.9785 1.26758 52.6445 1.0332 53.3555 0.931641C53.4648 0.919922 53.5742 0.914062 53.6836 0.914062C53.9141 0.914062 54.1758 0.949219 54.4688 1.01953C54.7617 1.08594 55.0215 1.25195 55.248 1.51758C55.4512 1.78711 55.5527 2.07812 55.5527 2.39062C55.5527 2.51562 55.5352 2.64648 55.5 2.7832C55.4141 3.0957 55.2773 3.38281 55.0898 3.64453C54.7266 4.15234 54.2715 4.55664 53.7246 4.85742C52.8379 5.3457 51.918 5.58984 50.9648 5.58984H50.6426C50.4512 5.58594 50.1836 5.52734 49.8398 5.41406C49.207 5.19531 48.6953 4.81445 48.3047 4.27148C48.0391 3.89258 47.9062 3.45898 47.9062 2.9707C47.9062 2.79492 47.9238 2.61719 47.959 2.4375C48.0879 1.76953 48.3965 1.24609 48.8848 0.867188C49.3418 0.515625 49.8516 0.339844 50.4141 0.339844C50.5781 0.339844 50.7441 0.355469 50.9121 0.386719C51.0801 0.421875 51.1992 0.515625 51.2695 0.667969C51.3164 0.777344 51.3398 0.884766 51.3398 0.990234C51.3398 1.12305 51.2988 1.24023 51.2168 1.3418C51.0957 1.49023 50.9375 1.56445 50.7422 1.56445C50.6875 1.56445 50.6328 1.55859 50.5781 1.54688L50.543 1.54102H50.5898C50.5977 1.54492 50.6055 1.54688 50.6133 1.54688C50.6211 1.54688 50.627 1.54883 50.6309 1.55273H50.5957C50.584 1.54883 50.5547 1.54688 50.5078 1.54688C50.4766 1.54297 50.4434 1.54102 50.4082 1.54102L50.2793 1.54688C50.2676 1.55078 50.2539 1.55273 50.2383 1.55273L50.332 1.54688H50.2852C50.2031 1.54688 50.0781 1.58008 49.9102 1.64648C49.9141 1.64258 49.9219 1.63867 49.9336 1.63477C49.9492 1.63086 49.9668 1.625 49.9863 1.61719C49.9629 1.63281 49.9082 1.6582 49.8223 1.69336L49.7109 1.75781C49.6992 1.76562 49.6855 1.77539 49.6699 1.78711C49.6543 1.79492 49.6465 1.80273 49.6465 1.81055L49.6641 1.79883C49.6719 1.79492 49.6855 1.7793 49.7051 1.75195C49.6934 1.76758 49.6777 1.7832 49.6582 1.79883C49.5879 1.8457 49.5098 1.91992 49.4238 2.02148L49.4941 1.95117L49.4648 1.97461C49.418 2.02148 49.3535 2.12695 49.2715 2.29102C49.2559 2.32227 49.248 2.3418 49.248 2.34961L49.2422 2.36133L49.2773 2.26758C49.2344 2.37305 49.2031 2.46094 49.1836 2.53125C49.1484 2.62891 49.1309 2.70508 49.1309 2.75977L49.1191 2.83594C49.123 2.8125 49.125 2.7832 49.125 2.74805L49.1191 2.83008C49.1152 2.92773 49.1133 3.03516 49.1133 3.15234L49.1074 3.11133V3.06445C49.1152 3.10352 49.1191 3.13672 49.1191 3.16406C49.1387 3.25 49.1602 3.32227 49.1836 3.38086C49.1758 3.35352 49.1641 3.32812 49.1484 3.30469C49.1602 3.32031 49.168 3.33789 49.1719 3.35742C49.1797 3.37305 49.1855 3.38672 49.1895 3.39844C49.2441 3.50391 49.2832 3.57227 49.3066 3.60352C49.3301 3.63086 49.3496 3.6582 49.3652 3.68555L49.3184 3.60352C49.3184 3.61523 49.3262 3.63281 49.3418 3.65625C49.3613 3.67578 49.3809 3.69727 49.4004 3.7207C49.4551 3.7793 49.5117 3.83594 49.5703 3.89062L49.6699 3.97852L49.6113 3.91992C49.6738 3.98242 49.7559 4.04102 49.8574 4.0957C49.9355 4.14258 50.002 4.17969 50.0566 4.20703C50.0723 4.21094 50.0859 4.2168 50.0977 4.22461C50.0547 4.19336 50.0254 4.17773 50.0098 4.17773L50.0449 4.19531C50.0996 4.23047 50.2227 4.27148 50.4141 4.31836C50.5312 4.3457 50.6152 4.36328 50.666 4.37109L50.5957 4.36523L50.6074 4.35938L50.6543 4.36523C50.7598 4.37695 50.8828 4.38281 51.0234 4.38281C51.2227 4.38281 51.3672 4.375 51.457 4.35938L51.3809 4.37695C51.3809 4.37305 51.3848 4.37109 51.3926 4.37109C51.4004 4.36719 51.4102 4.36328 51.4219 4.35938H51.4512L51.5566 4.3418C51.7012 4.31836 51.8438 4.28711 51.9844 4.24805C52.1836 4.19727 52.3809 4.13672 52.5762 4.06641L52.6055 4.05469C52.6328 4.04688 52.6465 4.03906 52.6465 4.03125L52.5645 4.07227C52.5762 4.06445 52.5879 4.05859 52.5996 4.05469C52.6113 4.05078 52.6211 4.04688 52.6289 4.04297C52.9102 3.92969 53.1992 3.77344 53.4961 3.57422L53.5254 3.54492L53.5078 3.55664C53.4961 3.56445 53.4785 3.58008 53.4551 3.60352L53.4902 3.57422C53.5449 3.54688 53.6387 3.4668 53.7715 3.33398C53.8574 3.25586 53.916 3.19336 53.9473 3.14648L54 3.08203L53.9531 3.15234L54.0352 3.04102C54.125 2.91211 54.1973 2.79492 54.252 2.68945L54.293 2.5957L54.2461 2.68945L54.2637 2.66602C54.2754 2.64648 54.2832 2.625 54.2871 2.60156C54.3262 2.48828 54.3477 2.41211 54.3516 2.37305C54.3438 2.39258 54.3398 2.41992 54.3398 2.45508V2.40234L54.3457 2.37305C54.3457 2.3457 54.3438 2.32031 54.3398 2.29688L54.3516 2.37305C54.3477 2.3457 54.3398 2.32031 54.3281 2.29688L54.3633 2.36719C54.3594 2.36328 54.3535 2.35547 54.3457 2.34375C54.3418 2.33203 54.3359 2.32031 54.3281 2.30859C54.3242 2.29688 54.3203 2.28711 54.3164 2.2793C54.3125 2.26758 54.3105 2.25977 54.3105 2.25586C54.3105 2.25195 54.3086 2.25 54.3047 2.25L54.3105 2.26172C54.3105 2.26953 54.3184 2.2793 54.334 2.29102L54.3574 2.33203C54.3496 2.32812 54.3398 2.32031 54.3281 2.30859C54.3203 2.29688 54.3125 2.28711 54.3047 2.2793C54.2969 2.27148 54.2891 2.26367 54.2812 2.25586C54.2773 2.24414 54.2734 2.23828 54.2695 2.23828C54.2734 2.24219 54.2793 2.24805 54.2871 2.25586C54.2988 2.26367 54.3086 2.27148 54.3164 2.2793C54.3281 2.28711 54.334 2.29297 54.334 2.29688C54.3066 2.28516 54.2793 2.26953 54.252 2.25C54.2246 2.22656 54.1992 2.20898 54.1758 2.19727C54.1562 2.18555 54.1465 2.17773 54.1465 2.17383C54.1465 2.17773 54.1484 2.18164 54.1523 2.18555C54.1602 2.18555 54.1738 2.18945 54.1934 2.19727L54.2168 2.20898L54.1875 2.20312C54.1328 2.17578 54.0352 2.15039 53.8945 2.12695L53.9707 2.13867C53.9629 2.13086 53.9434 2.12695 53.9121 2.12695L53.8887 2.13281L53.8652 2.12695L53.6543 2.12109L53.3848 2.13867C53.3848 2.13477 53.3887 2.13281 53.3965 2.13281C53.4043 2.13281 53.4121 2.13086 53.4199 2.12695H53.4551H53.4492C53.4453 2.13086 53.4336 2.13477 53.4141 2.13867C53.3984 2.14258 53.3809 2.14648 53.3613 2.15039C53.3457 2.15039 53.3281 2.15234 53.3086 2.15625C53.0625 2.20703 52.8691 2.26172 52.7285 2.32031L52.6406 2.34961C52.6406 2.3457 52.6406 2.34375 52.6406 2.34375H52.6523C52.6602 2.33984 52.668 2.33789 52.6758 2.33789C52.6836 2.33398 52.6895 2.33008 52.6934 2.32617H52.6992V2.32031L52.623 2.35547C52.6035 2.36719 52.582 2.37695 52.5586 2.38477C52.0938 2.5957 51.6836 2.82812 51.3281 3.08203C51.2969 3.11328 51.2715 3.13281 51.252 3.14062C51.2988 3.12109 51.3223 3.10742 51.3223 3.09961L51.3105 3.10547C51.2715 3.11719 51.1562 3.20508 50.9648 3.36914C50.6797 3.60352 50.3945 3.88281 50.1094 4.20703L50.0098 4.33008L49.9688 4.38867C49.9805 4.38867 49.9961 4.36523 50.0156 4.31836C50.0039 4.33789 49.9922 4.35547 49.9805 4.37109C49.9688 4.38281 49.959 4.39453 49.9512 4.40625C49.6621 4.77734 49.4102 5.17969 49.1953 5.61328C49.1758 5.65234 49.1641 5.67969 49.1602 5.69531C49.1406 5.73047 49.1309 5.75195 49.1309 5.75977L49.1543 5.69531C49.0605 5.88281 48.9707 6.16016 48.8848 6.52734C48.8652 6.59375 48.8555 6.66211 48.8555 6.73242V6.65625C48.8555 6.69531 48.8516 6.73438 48.8438 6.77344C48.8359 6.83594 48.832 6.93359 48.832 7.06641C48.832 7.20312 48.8359 7.28711 48.8438 7.31836V7.32422C48.8438 7.34766 48.8555 7.41406 48.8789 7.52344C48.9102 7.65625 48.9492 7.7832 48.9961 7.9043C48.9883 7.88867 48.9824 7.875 48.9785 7.86328C48.9746 7.84766 48.9688 7.83398 48.9609 7.82227C48.9727 7.83789 48.9824 7.85938 48.9902 7.88672C49.002 7.91406 49.0312 7.97266 49.0781 8.0625C49.1523 8.20703 49.2227 8.32031 49.2891 8.40234C49.25 8.35547 49.2305 8.33008 49.2305 8.32617L49.2949 8.4082C49.4004 8.53711 49.5156 8.6582 49.6406 8.77148L49.7402 8.85938L49.7344 8.85352C49.7305 8.85352 49.7266 8.84961 49.7227 8.8418C49.6992 8.83008 49.6855 8.82031 49.6816 8.8125L49.6699 8.80078C49.6738 8.80078 49.6758 8.80273 49.6758 8.80664C49.7461 8.87305 49.8945 8.96875 50.1211 9.09375C50.1992 9.13281 50.2441 9.1543 50.2559 9.1582C50.2676 9.1582 50.2754 9.1582 50.2793 9.1582L50.1797 9.12305L50.3379 9.18164C50.4434 9.2207 50.5508 9.25195 50.6602 9.27539L50.8418 9.30469L50.7246 9.29297C50.7637 9.29297 50.834 9.30078 50.9355 9.31641C51.0918 9.32812 51.25 9.33398 51.4102 9.33398C51.5 9.33398 51.5918 9.33008 51.6855 9.32227C51.7793 9.31055 51.8418 9.30469 51.873 9.30469L51.7441 9.31641H51.791C52.1074 9.26953 52.3809 9.20703 52.6113 9.12891L52.8164 9.05273L52.7109 9.09375L52.7637 9.07617C53.0566 8.94727 53.291 8.81641 53.4668 8.68359L53.5137 8.6543C53.502 8.66602 53.4883 8.67578 53.4727 8.68359L53.6777 8.50781C53.8184 8.38672 53.9336 8.26953 54.0234 8.15625L54.0586 8.10938L54 8.19141L54.0293 8.14453C54.1387 8.03516 54.2734 7.82227 54.4336 7.50586C54.543 7.31836 54.7129 7.22461 54.9434 7.22461C55.0566 7.22461 55.1641 7.25195 55.2656 7.30664C55.4531 7.41992 55.5469 7.58594 55.5469 7.80469C55.5469 7.91797 55.5195 8.0293 55.4648 8.13867C55.0977 8.86523 54.5547 9.44727 53.8359 9.88477C53.0898 10.3262 52.252 10.5469 51.3223 10.5469ZM57.0469 10.4824C57.0312 10.4824 57.0195 10.4805 57.0117 10.4766C56.9648 10.4727 56.918 10.4648 56.8711 10.4531C56.8281 10.4414 56.7969 10.4297 56.7773 10.418C56.7539 10.418 56.7207 10.4043 56.6777 10.377C56.6387 10.3457 56.5977 10.3105 56.5547 10.2715C56.4219 10.127 56.3555 9.96094 56.3555 9.77344C56.3555 9.73047 56.3574 9.69336 56.3613 9.66211C56.3691 9.62695 56.375 9.59766 56.3789 9.57422L56.3848 9.55078C56.3926 9.52734 56.4043 9.5 56.4199 9.46875L56.4668 9.375C56.5566 9.23047 56.6953 9.12695 56.8828 9.06445C56.9336 9.05273 56.9844 9.04688 57.0352 9.04688C57.1445 9.04688 57.25 9.07617 57.3516 9.13477C57.4883 9.2207 57.5781 9.3418 57.6211 9.49805C57.6328 9.54102 57.6387 9.58594 57.6387 9.63281C57.6387 9.76562 57.6094 9.87695 57.5508 9.9668C57.5117 10.0371 57.459 10.0938 57.3926 10.1367C57.3301 10.1875 57.2598 10.2207 57.1816 10.2363L57.1758 10.2422L57.2988 10.1953L57.4219 10.1016L57.4043 10.1191L57.5039 10.002L57.4922 10.0195C57.5039 9.98438 57.5254 9.93555 57.5566 9.87305C57.5488 9.88477 57.5449 9.89844 57.5449 9.91406L57.5684 9.77344V9.79102C57.5605 9.74023 57.5547 9.6875 57.5508 9.63281L57.5566 9.66797C57.5527 9.64453 57.5332 9.5957 57.498 9.52148L57.5098 9.54492L57.4336 9.43945L57.3164 9.33984C57.3203 9.34766 57.3262 9.35156 57.334 9.35156C57.2988 9.33984 57.25 9.31836 57.1875 9.28711C57.1914 9.29102 57.1973 9.29297 57.2051 9.29297L57.0586 9.26953L56.918 9.29297C56.9219 9.28906 56.9277 9.28711 56.9355 9.28711L56.7891 9.3457L56.6895 9.42188C56.7012 9.41406 56.7109 9.4043 56.7188 9.39258L56.6191 9.51562C56.627 9.50781 56.6328 9.49805 56.6367 9.48633L56.5723 9.63281C56.5762 9.625 56.5781 9.61523 56.5781 9.60352L56.5605 9.73828L56.5723 9.87891C56.5762 9.88281 56.5781 9.88867 56.5781 9.89648L56.5723 9.86719L56.625 10.0137C56.625 10.0059 56.623 10 56.6191 9.99609L56.707 10.1191C56.5898 10.002 56.5312 9.85742 56.5312 9.68555C56.5352 9.51367 56.5977 9.36914 56.7188 9.25195C56.8242 9.13867 56.9648 9.08203 57.1406 9.08203C57.3555 9.09375 57.5195 9.17773 57.6328 9.33398C57.668 9.38477 57.6953 9.43945 57.7148 9.49805C57.75 9.56836 57.7676 9.65625 57.7676 9.76172C57.7637 9.94141 57.7109 10.0898 57.6094 10.207C57.4531 10.3906 57.2656 10.4824 57.0469 10.4824Z" fill="white" fill-opacity="0.9"/>
</svg>
